
        <svg xmlns="http://www.w3.org/2000/svg" xmlns:xlink="http://www.w3.org/1999/xlink" version="1.1" width="3213.3333333333335" 
        height="3189.120635480789" viewBox="0 0 3213.3333333333335 3189.120635480789">
			
			<g transform="scale(10.666666666666666) translate(10, 10)">
				<defs id="SvgjsDefs1001"></defs><g id="SvgjsG1007" featureKey="rootContainer" transform="matrix(2.759696424409928,0,0,2.759696424409928,0.12265319794953108,-0.025286431806797478)" fill="#20c997"><path xmlns="http://www.w3.org/2000/svg" d="M101.8 83.6l-.2-29.5c0-6 .1-12.2-.2-18-.1-2.5-.1-5.1-.1-7.8 0-4.7-.1-9-.4-13.2l-.2-4.2c-.1-2.7-.2-5.3-.3-8V1h-7.3L77.2.7H66.6a25.7 25.7 0 0 0-5.5.6l-.6.3H49.8c-.1-.2-.8-.3-2.2-.4L34.3.3a130.5 130.5 0 0 0-18.8.1C12.3.6 9 .8 4.6.9L1.5.5H.4v1.2c-.2 2-.3 4.3-.3 7s0 6.8-.1 10.2 0 5.3 0 8a42.2 42.2 0 0 0 .4 6.9 20.3 20.3 0 0 1 .3 2.9c.1 3.8.4 4.8.8 5.5v17.6l-.2.5c.1 4-.1 7.6-.2 11.3-.3 7.4-.4 15-.1 22.5a25.5 25.5 0 0 0 .5 4.9v.8H6l-.2.2h5.4a51 51 0 0 1 8.6.4 21.1 21.1 0 0 0 3.8.3c6.6-.1 12.7.1 18.9.4h6.7l13.9-.3c6.1-.1 11.9-.5 18.3-.5h9.7l3.5-.2 2.8-.5h2.3v-1c.3 1.6.6 1.4 1-.8.1-.6.2-1.3.3-2s.3-2.6.5-3.4a51.3 51.3 0 0 0 .3-8.8z"></path></g><g id="SvgjsG1008" featureKey="symbolFeature-0" transform="matrix(0.6783718153817536,0,0,0.6783718153817536,120,100.78850788832494)" fill="#ffffff"><g xmlns="http://www.w3.org/2000/svg" display="none"><rect x="-11.005" y="-97.479" display="inline" fill="#ffffff" width="786.5" height="405.5"></rect></g><g xmlns="http://www.w3.org/2000/svg" display="none"><g display="inline"><g><path d="M0,43.333l0-38.75c0-0.688,0.588-1.25,1.306-1.25h61.388c0.718,0,1.306,0.562,1.306,1.25v38.75H0z"></path></g><g><path fill="#ffffff" d="M64,43.333v5.333C64,49.4,63.412,50,62.694,50H1.306C0.588,50,0,49.4,0,48.667l0-5.333H64z"></path></g><g><polygon fill="#ffffff" points="41.333,59.333 22.667,59.333 24,50 40,50    "></polygon></g><g><rect x="18" y="59.333" fill="#ffffff" width="28" height="1.333"></rect></g><g opacity="0.2"><path fill="#ffffff" d="M28.328,3.333H1.306C0.588,3.333,0,3.896,0,4.583v22.432L28.328,3.333z"></path></g><g><defs><polygon id="b" points="41.333,59.333 22.667,59.333 24,50 40,50     "></polygon></defs><clipPath id="a"><use xmlns:xlink="http://www.w3.org/1999/xlink" xlink:href="#b" overflow="visible"></use></clipPath><g clip-path="url(#a)"><rect x="21.971" y="50" fill="#ffffff" width="20.058" height="3.15"></rect></g></g></g><g display="inline"><rect x="19.603" y="31.954" fill="#ffffff" width="5.22" height="1.305"></rect></g><g display="inline"><rect x="20.908" y="29.344" fill="#ffffff" width="2.61" height="1.305"></rect></g><g display="inline"><rect x="19.603" y="18.903" fill="#ffffff" width="5.22" height="1.305"></rect></g><g display="inline"><rect x="19.603" y="13.682" fill="#ffffff" width="5.22" height="1.305"></rect></g><g display="inline"><rect x="33.959" y="26.733" fill="#ffffff" width="6.525" height="1.305"></rect></g><g display="inline"><rect x="35.264" y="24.123" fill="#ffffff" width="5.22" height="1.305"></rect></g><g display="inline"><rect x="24.476" y="34.564" fill="#ffffff" width="10.789" height="1.305"></rect></g><g display="inline"><rect x="28.739" y="26.733" fill="#ffffff" width="2.61" height="1.305"></rect></g><g display="inline"><rect x="30.044" y="24.123" fill="#ffffff" width="2.61" height="1.305"></rect></g><g display="inline"><rect x="37.874" y="21.513" fill="#ffffff" width="2.61" height="1.305"></rect></g><g display="inline"><rect x="31.349" y="21.513" fill="#ffffff" width="2.61" height="1.305"></rect></g><g display="inline"><rect x="28.739" y="13.682" fill="#ffffff" width="3.915" height="1.305"></rect></g><g display="inline"><rect x="44.4" y="26.733" fill="#ffffff" width="2.61" height="1.305"></rect></g><g display="inline"><rect x="27.434" y="18.903" fill="#ffffff" width="5.22" height="1.305"></rect></g><g display="inline"><rect x="33.959" y="18.903" fill="#ffffff" width="5.22" height="1.305"></rect></g><g display="inline"><rect x="41.79" y="18.903" fill="#ffffff" width="5.22" height="1.305"></rect></g><g display="inline"><rect x="21.083" y="16.04" fill="#ffffff" width="4.907" height="1.305"></rect></g><g display="inline"><rect x="19.603" y="11.072" fill="#ffffff" width="13.051" height="1.305"></rect></g><g display="inline"><rect x="36.569" y="11.072" fill="#ffffff" width="5.22" height="1.305"></rect></g><g display="inline"><rect x="28.739" y="31.954" fill="#ffffff" width="7.831" height="1.305"></rect></g><g display="inline"><rect x="26.129" y="29.344" fill="#ffffff" width="7.831" height="1.305"></rect></g><g display="inline"><rect x="19.603" y="21.513" fill="#ffffff" width="7.831" height="1.305"></rect></g><g display="inline"><rect x="18.298" y="26.733" fill="#ffffff" width="7.831" height="1.305"></rect></g><g display="inline"><rect x="16.993" y="24.123" fill="#ffffff" width="7.831" height="1.305"></rect></g></g><g xmlns="http://www.w3.org/2000/svg" display="none"><polygon display="inline" fill="#ffffff" points="22.625,59.45 40.875,59.45 39.889,49.958 24.112,49.958  "></polygon><rect x="1.5" y="4.286" display="inline" fill="#ffffff" width="61" height="45.125"></rect><rect x="4" y="7.26" display="inline" width="56" height="32.707"></rect><path display="inline" d="M64,43.967H0V5.47c0-1.219,1.017-2.21,2.266-2.21h59.47C62.984,3.26,64,4.251,64,5.47V43.967z M2,41.967   h60V5.47c0-0.1-0.108-0.21-0.265-0.21H2.266C2.109,5.26,2,5.371,2,5.47V41.967z"></path><path display="inline" d="M61.735,50.418H2.266C1.017,50.418,0,49.391,0,48.127v-6.16h64v6.16   C64,49.391,62.984,50.418,61.735,50.418z M2,43.967v4.16c0,0.158,0.122,0.291,0.266,0.291h59.47c0.144,0,0.265-0.133,0.265-0.291   v-4.16H2z"></path><path display="inline" d="M42.195,59.45h-20.39l1.577-11.031h17.234L42.195,59.45z M24.112,57.45h15.776l-1.006-7.031H25.117   L24.112,57.45z"></path><rect x="17.438" y="57.45" display="inline" width="29.125" height="3.29"></rect><rect x="19.603" y="31.954" display="inline" fill="#ffffff" width="5.22" height="1.305"></rect><rect x="20.908" y="29.344" display="inline" fill="#ffffff" width="2.61" height="1.305"></rect><rect x="19.603" y="18.903" display="inline" fill="#ffffff" width="5.22" height="1.305"></rect><rect x="19.603" y="13.682" display="inline" fill="#ffffff" width="5.22" height="1.305"></rect><rect x="33.959" y="26.733" display="inline" fill="#ffffff" width="6.525" height="1.305"></rect><rect x="35.264" y="24.123" display="inline" fill="#ffffff" width="5.22" height="1.305"></rect><rect x="24.476" y="34.564" display="inline" fill="#ffffff" width="10.789" height="1.305"></rect><rect x="28.739" y="26.733" display="inline" fill="#ffffff" width="2.61" height="1.305"></rect><rect x="30.044" y="24.123" display="inline" fill="#ffffff" width="2.61" height="1.305"></rect><rect x="37.874" y="21.513" display="inline" fill="#ffffff" width="2.61" height="1.305"></rect><rect x="31.349" y="21.513" display="inline" fill="#ffffff" width="2.61" height="1.305"></rect><rect x="28.739" y="13.682" display="inline" fill="#ffffff" width="3.915" height="1.305"></rect><rect x="44.4" y="26.733" display="inline" fill="#ffffff" width="2.61" height="1.305"></rect><rect x="27.434" y="18.903" display="inline" fill="#ffffff" width="5.22" height="1.305"></rect><rect x="33.959" y="18.903" display="inline" fill="#ffffff" width="5.22" height="1.305"></rect><rect x="41.79" y="18.903" display="inline" fill="#ffffff" width="5.22" height="1.305"></rect><rect x="21.083" y="16.04" display="inline" fill="#ffffff" width="4.907" height="1.305"></rect><rect x="19.603" y="11.072" display="inline" fill="#ffffff" width="13.051" height="1.305"></rect><rect x="36.569" y="11.072" display="inline" fill="#ffffff" width="5.22" height="1.305"></rect><rect x="28.739" y="31.954" display="inline" fill="#ffffff" width="7.831" height="1.305"></rect><rect x="26.129" y="29.344" display="inline" fill="#ffffff" width="7.831" height="1.305"></rect><rect x="19.603" y="21.513" display="inline" fill="#ffffff" width="7.831" height="1.305"></rect><rect x="18.298" y="26.733" display="inline" fill="#ffffff" width="7.831" height="1.305"></rect><rect x="16.993" y="24.123" display="inline" fill="#ffffff" width="7.831" height="1.305"></rect></g><g xmlns="http://www.w3.org/2000/svg" display="none"><polygon display="inline" fill="#ffffff" points="22.625,59.45 40.875,59.45 39.889,49.958 24.112,49.958  "></polygon><rect x="1.5" y="4.286" display="inline" fill="#ffffff" width="61" height="45.125"></rect><rect x="4" y="7.26" display="inline" width="56" height="32.707"></rect><path display="inline" d="M64,43.967H0V5.47c0-1.219,1.017-2.21,2.266-2.21h59.47C62.984,3.26,64,4.251,64,5.47V43.967z M2,41.967   h60V5.47c0-0.1-0.108-0.21-0.265-0.21H2.266C2.109,5.26,2,5.371,2,5.47V41.967z"></path><path display="inline" d="M61.735,50.418H2.266C1.017,50.418,0,49.391,0,48.127v-6.16h64v6.16   C64,49.391,62.984,50.418,61.735,50.418z M2,43.967v4.16c0,0.158,0.122,0.291,0.266,0.291h59.47c0.144,0,0.265-0.133,0.265-0.291   v-4.16H2z"></path><path display="inline" d="M42.195,59.45h-20.39l1.577-11.031h17.234L42.195,59.45z M24.112,57.45h15.776l-1.006-7.031H25.117   L24.112,57.45z"></path><rect x="17.438" y="57.45" display="inline" width="29.125" height="3.29"></rect><rect x="19.603" y="31.954" display="inline" fill="#ffffff" width="5.22" height="1.305"></rect><rect x="20.908" y="29.344" display="inline" fill="#ffffff" width="2.61" height="1.305"></rect><rect x="19.603" y="18.903" display="inline" fill="#ffffff" width="5.22" height="1.305"></rect><rect x="19.603" y="13.682" display="inline" fill="#ffffff" width="5.22" height="1.305"></rect><rect x="33.959" y="26.733" display="inline" fill="#ffffff" width="6.525" height="1.305"></rect><rect x="35.264" y="24.123" display="inline" fill="#ffffff" width="5.22" height="1.305"></rect><rect x="24.476" y="34.564" display="inline" fill="#ffffff" width="10.789" height="1.305"></rect><rect x="28.739" y="26.733" display="inline" fill="#ffffff" width="2.61" height="1.305"></rect><rect x="30.044" y="24.123" display="inline" fill="#ffffff" width="2.61" height="1.305"></rect><rect x="37.874" y="21.513" display="inline" fill="#ffffff" width="2.61" height="1.305"></rect><rect x="31.349" y="21.513" display="inline" fill="#ffffff" width="2.61" height="1.305"></rect><rect x="28.739" y="13.682" display="inline" fill="#ffffff" width="3.915" height="1.305"></rect><rect x="44.4" y="26.733" display="inline" fill="#ffffff" width="2.61" height="1.305"></rect><rect x="27.434" y="18.903" display="inline" fill="#ffffff" width="5.22" height="1.305"></rect><rect x="33.959" y="18.903" display="inline" fill="#ffffff" width="5.22" height="1.305"></rect><rect x="41.79" y="18.903" display="inline" fill="#ffffff" width="5.22" height="1.305"></rect><rect x="21.083" y="16.04" display="inline" fill="#ffffff" width="4.907" height="1.305"></rect><rect x="19.603" y="11.072" display="inline" fill="#ffffff" width="13.051" height="1.305"></rect><rect x="36.569" y="11.072" display="inline" fill="#ffffff" width="5.22" height="1.305"></rect><rect x="28.739" y="31.954" display="inline" fill="#ffffff" width="7.831" height="1.305"></rect><rect x="26.129" y="29.344" display="inline" fill="#ffffff" width="7.831" height="1.305"></rect><rect x="19.603" y="21.513" display="inline" fill="#ffffff" width="7.831" height="1.305"></rect><rect x="18.298" y="26.733" display="inline" fill="#ffffff" width="7.831" height="1.305"></rect><rect x="16.993" y="24.123" display="inline" fill="#ffffff" width="7.831" height="1.305"></rect></g><g xmlns="http://www.w3.org/2000/svg"><g><path d="M61.735,3.26H2.266C1.017,3.26,0,4.251,0,5.47v36.497v2v4.16c0,1.264,1.017,2.291,2.266,2.291h20.831l-1.005,7.031h-4.654    v3.29h29.125v-3.29h-4.653l-1.006-7.031h20.832c1.249,0,2.265-1.027,2.265-2.291v-4.16v-2V5.47C64,4.251,62.984,3.26,61.735,3.26z     M24.112,57.45l1.005-7.031h13.766l1.006,7.031H24.112z M62,48.127c0,0.158-0.121,0.291-0.265,0.291H40.617H23.383H2.266    C2.122,48.418,2,48.286,2,48.127v-4.16h60V48.127z M62,41.967H2V5.47c0-0.1,0.109-0.21,0.266-0.21h59.47    C61.892,5.26,62,5.371,62,5.47V41.967z"></path><rect x="19.478" y="31.828" width="5.47" height="1.556"></rect><rect x="20.783" y="29.219" width="2.86" height="1.555"></rect><rect x="19.478" y="18.778" width="5.47" height="1.556"></rect><rect x="19.478" y="13.558" width="5.47" height="1.555"></rect><rect x="33.835" y="26.609" width="6.775" height="1.555"></rect><rect x="35.139" y="23.998" width="5.471" height="1.555"></rect><rect x="24.351" y="34.439" width="11.039" height="1.556"></rect><rect x="28.614" y="26.609" width="2.86" height="1.555"></rect><rect x="29.919" y="23.998" width="2.86" height="1.555"></rect><rect x="37.75" y="21.388" width="2.86" height="1.555"></rect><rect x="31.224" y="21.388" width="2.861" height="1.555"></rect><rect x="28.614" y="13.558" width="4.165" height="1.555"></rect><rect x="44.275" y="26.609" width="2.86" height="1.555"></rect><rect x="27.309" y="18.778" width="5.47" height="1.556"></rect><rect x="33.835" y="18.778" width="5.47" height="1.556"></rect><rect x="41.665" y="18.778" width="5.471" height="1.556"></rect><rect x="20.958" y="15.915" width="5.157" height="1.555"></rect><rect x="19.478" y="10.948" width="13.301" height="1.555"></rect><rect x="36.444" y="10.948" width="5.471" height="1.555"></rect><rect x="28.614" y="31.828" width="8.08" height="1.556"></rect><rect x="26.004" y="29.219" width="8.081" height="1.555"></rect><rect x="19.478" y="21.388" width="8.081" height="1.555"></rect><rect x="18.173" y="26.609" width="8.081" height="1.555"></rect><rect x="16.868" y="23.998" width="8.081" height="1.555"></rect></g></g></g><g id="SvgjsG1009" featureKey="nameLeftFeature-0" transform="matrix(1.0467534285298215,0,0,1.0467534285298215,50.20163758149119,155.38241481426454)" fill="#ffffff"><path d="M12.661 17.729 c0.11864 0.08458 0.084746 0.22017 -0.067797 0.37271 c-1.2544 1.2542 -2.8814 2.0168 -4.8983 2.0168 c-3.8136 0 -6.9322 -3.0168 -6.9322 -6.8812 c0 -3.8475 3.1186 -6.9153 6.9322 -6.9153 c1.9322 0 3.661 0.74576 4.9322 2.0169 c0.15254 0.15254 0.16949 0.27119 0.067797 0.35593 l-0.71186 0.59322 c-0.11864 0.10169 -0.22034 0.10169 -0.33898 -0.016949 c-0.71186 -0.74559 -2.1186 -1.6608 -3.8475 -1.6608 c-3.678 0 -5.7119 2.9831 -5.7119 5.6271 c0 2.678 2.0339 5.5932 5.7119 5.5932 c1.7288 0 3.0508 -0.88136 3.7966 -1.6271 c0.13559 -0.13559 0.23729 -0.16949 0.35593 -0.067797 z M25.779372881355933 6.441000000000001 c0.15254 0 0.23729 0.067963 0.23729 0.22051 l0 13.119 c0 0.13559 -0.067797 0.22017 -0.20339 0.22017 l-0.6778 0 c-0.30508 0 -0.44068 -0.18644 -0.44068 -0.45763 l0 -5.5593 l-8.5593 0 l0 5.7797 c0 0.15254 -0.067797 0.23712 -0.22034 0.23712 l-0.86441 0 c-0.16966 0 -0.23746 -0.08458 -0.23746 -0.23712 l0 -13.102 c0 -0.15254 0.067797 -0.22034 0.22034 -0.22034 l0.88136 0 c0.13559 0 0.22034 0.067797 0.22034 0.22034 l0 6 l8.5593 0 l0 -6 c0 -0.15254 0.067797 -0.22034 0.20339 -0.22034 l0.88136 0 z M41.35613559322034 19.77983 c0.067797 0.13559 0.034229 0.22017 -0.11831 0.22017 l-1.0339 0 c-0.11864 0 -0.18644 -0.050847 -0.23729 -0.15254 l-1.1864 -2.5254 l-8.1864 0 l-1.1864 2.5254 c-0.050847 0.10169 -0.11848 0.15254 -0.22034 0.15254 l-1.0678 0 c-0.11864 0 -0.18644 -0.08458 -0.11864 -0.22017 l6.3558 -13.271 c0.067797 -0.11864 0.11864 -0.15254 0.20322 -0.15254 l0.23745 0 c0.084746 0 0.15254 0.033898 0.20339 0.15254 z M31.169635593220338 16.1019 l7.0339 0 l-3.5254 -7.4576 z M52.914796610169496 19.76288 c0.084746 0.13559 0.033732 0.23712 -0.11881 0.23712 l-0.88136 0 c-0.27119 0 -0.45763 -0.22017 -0.55932 -0.37271 l-3 -4.2542 l-0.050847 0 l-3.8814 0 l0 4.3898 c0 0.15254 -0.067797 0.23712 -0.23729 0.23712 l-0.88136 0 c-0.15254 0 -0.22034 -0.08458 -0.22034 -0.23712 l0 -13.102 c0 -0.15254 0.067797 -0.22034 0.22034 -0.22034 l5 0 c3.1695 0 4.6273 2.4576 4.6273 4.4746 c0 1.7288 -1.0508 3.7288 -3.2712 4.3051 z M44.4235966101695 7.728999999999999 l0.00016552 6.3727 l3.7797 0 c2.3051 0 3.4066 -1.6102 3.4066 -3.2203 c0 -1.5932 -1.1186 -3.1524 -3.4068 -3.1524 l-3.7797 0 z M63.18640338983052 18.712 c0.13559 0 0.20339 0.084912 0.20339 0.23729 l0 0.83051 c0 0.15254 -0.067797 0.22017 -0.20339 0.22017 l-7.9492 0 c-0.15254 0 -0.20339 -0.10153 -0.20339 -0.22017 l0 -13.119 c0 -0.15254 0.067797 -0.22034 0.22034 -0.22034 l0.89831 0 c0.13559 0 0.22034 0.067797 0.22034 0.22034 l0 12.051 l6.8136 0 z M66.7627338983051 6.441000000000001 l-0.86441 0 c-0.15254 0 -0.22034 0.067797 -0.22034 0.22034 l0 13.119 c0 0.13559 0.067797 0.22017 0.22034 0.22017 l0.88136 0 c0.11864 0 0.20339 -0.08458 0.20339 -0.22017 l0 -13.119 c0 -0.15254 -0.084746 -0.22034 -0.22034 -0.22034 z M78.30488305084747 7.728999999999999 l-7.3556 0.00049656 l0 4.9659 l4.5424 0 c0.15254 0 0.23729 0.067797 0.23729 0.23729 l0 0.81339 c0 0.15254 -0.084746 0.22034 -0.23729 0.22034 l-4.5424 0 l0 4.7458 l7.3559 0 c0.15254 0 0.23712 0.084746 0.23712 0.23712 l0 0.81356 c0 0.16949 -0.067797 0.23712 -0.23729 0.23712 l-8.4746 0 c-0.15254 0 -0.22034 -0.08458 -0.22034 -0.22017 l0 -13.119 c0 -0.15254 0.084746 -0.22034 0.22034 -0.22034 l8.4746 0 c0.15254 0 0.23712 0.084746 0.23712 0.22034 l0 0.84746 c0 0.13559 -0.067797 0.22034 -0.23729 0.22034 z"></path></g><g id="SvgjsG1010" featureKey="nameRightFeature-0" transform="matrix(1.0467533561736553,0,0,1.0467533561736553,146.00100715771276,155.3822780107046)" fill="#ffffff"><path d="M16.796610169491526 19.20339 c0.30508 0.35593 0.13543 0.79644 -0.3222 0.79644 l-1.8305 0 c-0.16949 0 -0.27119 -0.033732 -0.38983 -0.16933 l-5.9492 -6.6271 l0 6.4746 c0 0.16949 -0.15254 0.32186 -0.32203 0.32186 l-1.7627 0 c-0.18644 0 -0.33898 -0.15238 -0.33898 -0.32186 l0 -11.763 c-0.016949 -0.45763 -0.067797 -0.74576 -0.13559 -1.0508 c-0.050847 -0.22034 0.033898 -0.42373 0.22034 -0.42373 l1.5085 0 c0.49153 0 0.83051 0.32203 0.83051 0.77966 l0 5.3559 l5.0847 -5.9492 c0.10169 -0.13559 0.22034 -0.18644 0.40695 -0.18644 l1.8303 0 c0.42373 0 0.5761 0.44068 0.33881 0.72881 l-4.8983 5.7288 z M31.728322033898305 19.62712 c0.10169 0.20339 0.034229 0.37271 -0.20305 0.37271 l-1.9831 0 c-0.16949 0 -0.27119 -0.08458 -0.33898 -0.22017 l-0.91525 -1.9322 l-6.5256 0 l-0.91525 1.9322 c-0.067797 0.13559 -0.18644 0.22017 -0.33898 0.22017 l-2 0 c-0.20339 0 -0.32203 -0.16933 -0.22034 -0.37271 l6.3898 -13.102 c0.067797 -0.11881 0.15238 -0.16966 0.23712 -0.16966 l0.20339 0 c0.10169 0 0.16949 0.050847 0.23729 0.16966 z M22.796822033898305 15.6441 l4.4576 0 l-2.2203 -4.7288 z M42.9826779661017 6.441000000000001 c0.18661 0 0.30525 0.20339 0.18661 0.38983 l-5.0169 7.7119 l0 5.1188 c0 0.20339 -0.11864 0.33881 -0.30525 0.33881 l-1.2712 0 c-0.52542 0 -0.83051 -0.37288 -0.83051 -0.86441 l0 -4.5932 l-5 -7.7119 c-0.11864 -0.18644 0 -0.38983 0.18644 -0.38983 l2.1695 0 c0.18644 0 0.27119 0.15254 0.37288 0.32203 l3.4746 5.3559 l3.4576 -5.3559 c0.11864 -0.16949 0.20339 -0.32203 0.37288 -0.32203 l2.2034 0 z M52.847476271186444 17.6612 c0.18644 0 0.32203 0.13592 0.32203 0.33915 l0 1.678 c0 0.16949 -0.13559 0.32186 -0.32203 0.32186 l-8.0169 0 c-0.16949 0 -0.25424 -0.13543 -0.25424 -0.30508 l0 -12.932 c0 -0.16949 0.13559 -0.32203 0.32203 -0.32203 l1.7627 0 c0.18644 0 0.33898 0.15254 0.33898 0.32203 l0 10.898 l5.8475 0 z M61.35577966101695 20.11864 c3.7966 0 6.8983 -3.0507 6.8983 -6.9151 c0 -3.8305 -3.1017 -6.8814 -6.8983 -6.8814 c-3.8305 0 -6.9322 3.0508 -6.9322 6.8814 c0 3.8644 3.1017 6.9151 6.9322 6.9151 z M61.35577966101695 17.7798 c-2.4407 0 -4.5085 -2.1017 -4.5085 -4.5763 c0 -2.4576 2.0678 -4.5422 4.5085 -4.5422 s4.4915 2.0846 4.4915 4.5422 c0 2.4746 -2.0508 4.5763 -4.4915 4.5763 z M80.74518644067798 19.61017 c0.13559 0.20339 0.034064 0.38983 -0.23712 0.38983 l-1.5763 0 c-0.47458 0 -0.88136 -0.44068 -1.0339 -0.69492 l-2.339 -3.5763 l-2.8475 0 l0 3.9322 c0 0.20339 -0.13559 0.33881 -0.32203 0.33881 l-1.7966 0 c-0.16949 0 -0.30508 -0.13543 -0.30508 -0.33881 l0 -12.898 c0 -0.16949 0.13559 -0.32203 0.32203 -0.32203 l5.4068 0 c2.7797 0 4.4915 2.5763 4.4915 4.6441 c0 1.6442 -0.98305 3.4576 -2.661 4.2373 z M72.71198644067798 8.78 l0.00033103 4.6102 l2.9659 0 c1.6102 0 2.3898 -1.1695 2.3898 -2.3559 c0 -1.1356 -0.79661 -2.2542 -2.3902 -2.2542 l-2.9659 0 z"></path></g>
			</g>
		</svg>
	