
        <svg xmlns="http://www.w3.org/2000/svg" xmlns:xlink="http://www.w3.org/1999/xlink" version="1.1" width="3194.269062651773" 
        height="3194.269062651773" viewBox="0 0 3194.269062651773 3194.269062651773">
			
			<g transform="scale(9.713453132588636) translate(10, 10)">
				<defs id="SvgjsDefs1417"></defs><g id="SvgjsG1418" featureKey="rootContainer" transform="matrix(3.0885,0,0,3.0885,0,0)" fill="#20c997"><path xmlns="http://www.w3.org/2000/svg" d="M0 0h100v100H0z"></path></g><g id="SvgjsG1419" featureKey="symbolFeature-0" transform="matrix(1.796846939689028,0,0,1.796846939689028,97,42.142278993749834)" fill="#ffffff"><g xmlns="http://www.w3.org/2000/svg" display="none"><rect x="-11.005" y="-97.479" display="inline" fill="#ffffff" width="786.5" height="405.5"></rect></g><g xmlns="http://www.w3.org/2000/svg" display="none"><g display="inline"><g><path d="M0,43.333l0-38.75c0-0.688,0.588-1.25,1.306-1.25h61.388c0.718,0,1.306,0.562,1.306,1.25v38.75H0z"></path></g><g><path fill="#ffffff" d="M64,43.333v5.333C64,49.4,63.412,50,62.694,50H1.306C0.588,50,0,49.4,0,48.667l0-5.333H64z"></path></g><g><polygon fill="#ffffff" points="41.333,59.333 22.667,59.333 24,50 40,50    "></polygon></g><g><rect x="18" y="59.333" fill="#ffffff" width="28" height="1.333"></rect></g><g opacity="0.2"><path fill="#ffffff" d="M28.328,3.333H1.306C0.588,3.333,0,3.896,0,4.583v22.432L28.328,3.333z"></path></g><g><defs><polygon id="b" points="41.333,59.333 22.667,59.333 24,50 40,50     "></polygon></defs><clipPath id="a"><use xmlns:xlink="http://www.w3.org/1999/xlink" xlink:href="#b" overflow="visible"></use></clipPath><g clip-path="url(#a)"><rect x="21.971" y="50" fill="#ffffff" width="20.058" height="3.15"></rect></g></g></g><g display="inline"><rect x="19.603" y="31.954" fill="#ffffff" width="5.22" height="1.305"></rect></g><g display="inline"><rect x="20.908" y="29.344" fill="#ffffff" width="2.61" height="1.305"></rect></g><g display="inline"><rect x="19.603" y="18.903" fill="#ffffff" width="5.22" height="1.305"></rect></g><g display="inline"><rect x="19.603" y="13.682" fill="#ffffff" width="5.22" height="1.305"></rect></g><g display="inline"><rect x="33.959" y="26.733" fill="#ffffff" width="6.525" height="1.305"></rect></g><g display="inline"><rect x="35.264" y="24.123" fill="#ffffff" width="5.22" height="1.305"></rect></g><g display="inline"><rect x="24.476" y="34.564" fill="#ffffff" width="10.789" height="1.305"></rect></g><g display="inline"><rect x="28.739" y="26.733" fill="#ffffff" width="2.61" height="1.305"></rect></g><g display="inline"><rect x="30.044" y="24.123" fill="#ffffff" width="2.61" height="1.305"></rect></g><g display="inline"><rect x="37.874" y="21.513" fill="#ffffff" width="2.61" height="1.305"></rect></g><g display="inline"><rect x="31.349" y="21.513" fill="#ffffff" width="2.61" height="1.305"></rect></g><g display="inline"><rect x="28.739" y="13.682" fill="#ffffff" width="3.915" height="1.305"></rect></g><g display="inline"><rect x="44.4" y="26.733" fill="#ffffff" width="2.61" height="1.305"></rect></g><g display="inline"><rect x="27.434" y="18.903" fill="#ffffff" width="5.22" height="1.305"></rect></g><g display="inline"><rect x="33.959" y="18.903" fill="#ffffff" width="5.22" height="1.305"></rect></g><g display="inline"><rect x="41.79" y="18.903" fill="#ffffff" width="5.22" height="1.305"></rect></g><g display="inline"><rect x="21.083" y="16.04" fill="#ffffff" width="4.907" height="1.305"></rect></g><g display="inline"><rect x="19.603" y="11.072" fill="#ffffff" width="13.051" height="1.305"></rect></g><g display="inline"><rect x="36.569" y="11.072" fill="#ffffff" width="5.22" height="1.305"></rect></g><g display="inline"><rect x="28.739" y="31.954" fill="#ffffff" width="7.831" height="1.305"></rect></g><g display="inline"><rect x="26.129" y="29.344" fill="#ffffff" width="7.831" height="1.305"></rect></g><g display="inline"><rect x="19.603" y="21.513" fill="#ffffff" width="7.831" height="1.305"></rect></g><g display="inline"><rect x="18.298" y="26.733" fill="#ffffff" width="7.831" height="1.305"></rect></g><g display="inline"><rect x="16.993" y="24.123" fill="#ffffff" width="7.831" height="1.305"></rect></g></g><g xmlns="http://www.w3.org/2000/svg" display="none"><polygon display="inline" fill="#ffffff" points="22.625,59.45 40.875,59.45 39.889,49.958 24.112,49.958  "></polygon><rect x="1.5" y="4.286" display="inline" fill="#ffffff" width="61" height="45.125"></rect><rect x="4" y="7.26" display="inline" width="56" height="32.707"></rect><path display="inline" d="M64,43.967H0V5.47c0-1.219,1.017-2.21,2.266-2.21h59.47C62.984,3.26,64,4.251,64,5.47V43.967z M2,41.967   h60V5.47c0-0.1-0.108-0.21-0.265-0.21H2.266C2.109,5.26,2,5.371,2,5.47V41.967z"></path><path display="inline" d="M61.735,50.418H2.266C1.017,50.418,0,49.391,0,48.127v-6.16h64v6.16   C64,49.391,62.984,50.418,61.735,50.418z M2,43.967v4.16c0,0.158,0.122,0.291,0.266,0.291h59.47c0.144,0,0.265-0.133,0.265-0.291   v-4.16H2z"></path><path display="inline" d="M42.195,59.45h-20.39l1.577-11.031h17.234L42.195,59.45z M24.112,57.45h15.776l-1.006-7.031H25.117   L24.112,57.45z"></path><rect x="17.438" y="57.45" display="inline" width="29.125" height="3.29"></rect><rect x="19.603" y="31.954" display="inline" fill="#ffffff" width="5.22" height="1.305"></rect><rect x="20.908" y="29.344" display="inline" fill="#ffffff" width="2.61" height="1.305"></rect><rect x="19.603" y="18.903" display="inline" fill="#ffffff" width="5.22" height="1.305"></rect><rect x="19.603" y="13.682" display="inline" fill="#ffffff" width="5.22" height="1.305"></rect><rect x="33.959" y="26.733" display="inline" fill="#ffffff" width="6.525" height="1.305"></rect><rect x="35.264" y="24.123" display="inline" fill="#ffffff" width="5.22" height="1.305"></rect><rect x="24.476" y="34.564" display="inline" fill="#ffffff" width="10.789" height="1.305"></rect><rect x="28.739" y="26.733" display="inline" fill="#ffffff" width="2.61" height="1.305"></rect><rect x="30.044" y="24.123" display="inline" fill="#ffffff" width="2.61" height="1.305"></rect><rect x="37.874" y="21.513" display="inline" fill="#ffffff" width="2.61" height="1.305"></rect><rect x="31.349" y="21.513" display="inline" fill="#ffffff" width="2.61" height="1.305"></rect><rect x="28.739" y="13.682" display="inline" fill="#ffffff" width="3.915" height="1.305"></rect><rect x="44.4" y="26.733" display="inline" fill="#ffffff" width="2.61" height="1.305"></rect><rect x="27.434" y="18.903" display="inline" fill="#ffffff" width="5.22" height="1.305"></rect><rect x="33.959" y="18.903" display="inline" fill="#ffffff" width="5.22" height="1.305"></rect><rect x="41.79" y="18.903" display="inline" fill="#ffffff" width="5.22" height="1.305"></rect><rect x="21.083" y="16.04" display="inline" fill="#ffffff" width="4.907" height="1.305"></rect><rect x="19.603" y="11.072" display="inline" fill="#ffffff" width="13.051" height="1.305"></rect><rect x="36.569" y="11.072" display="inline" fill="#ffffff" width="5.22" height="1.305"></rect><rect x="28.739" y="31.954" display="inline" fill="#ffffff" width="7.831" height="1.305"></rect><rect x="26.129" y="29.344" display="inline" fill="#ffffff" width="7.831" height="1.305"></rect><rect x="19.603" y="21.513" display="inline" fill="#ffffff" width="7.831" height="1.305"></rect><rect x="18.298" y="26.733" display="inline" fill="#ffffff" width="7.831" height="1.305"></rect><rect x="16.993" y="24.123" display="inline" fill="#ffffff" width="7.831" height="1.305"></rect></g><g xmlns="http://www.w3.org/2000/svg" display="none"><polygon display="inline" fill="#ffffff" points="22.625,59.45 40.875,59.45 39.889,49.958 24.112,49.958  "></polygon><rect x="1.5" y="4.286" display="inline" fill="#ffffff" width="61" height="45.125"></rect><rect x="4" y="7.26" display="inline" width="56" height="32.707"></rect><path display="inline" d="M64,43.967H0V5.47c0-1.219,1.017-2.21,2.266-2.21h59.47C62.984,3.26,64,4.251,64,5.47V43.967z M2,41.967   h60V5.47c0-0.1-0.108-0.21-0.265-0.21H2.266C2.109,5.26,2,5.371,2,5.47V41.967z"></path><path display="inline" d="M61.735,50.418H2.266C1.017,50.418,0,49.391,0,48.127v-6.16h64v6.16   C64,49.391,62.984,50.418,61.735,50.418z M2,43.967v4.16c0,0.158,0.122,0.291,0.266,0.291h59.47c0.144,0,0.265-0.133,0.265-0.291   v-4.16H2z"></path><path display="inline" d="M42.195,59.45h-20.39l1.577-11.031h17.234L42.195,59.45z M24.112,57.45h15.776l-1.006-7.031H25.117   L24.112,57.45z"></path><rect x="17.438" y="57.45" display="inline" width="29.125" height="3.29"></rect><rect x="19.603" y="31.954" display="inline" fill="#ffffff" width="5.22" height="1.305"></rect><rect x="20.908" y="29.344" display="inline" fill="#ffffff" width="2.61" height="1.305"></rect><rect x="19.603" y="18.903" display="inline" fill="#ffffff" width="5.22" height="1.305"></rect><rect x="19.603" y="13.682" display="inline" fill="#ffffff" width="5.22" height="1.305"></rect><rect x="33.959" y="26.733" display="inline" fill="#ffffff" width="6.525" height="1.305"></rect><rect x="35.264" y="24.123" display="inline" fill="#ffffff" width="5.22" height="1.305"></rect><rect x="24.476" y="34.564" display="inline" fill="#ffffff" width="10.789" height="1.305"></rect><rect x="28.739" y="26.733" display="inline" fill="#ffffff" width="2.61" height="1.305"></rect><rect x="30.044" y="24.123" display="inline" fill="#ffffff" width="2.61" height="1.305"></rect><rect x="37.874" y="21.513" display="inline" fill="#ffffff" width="2.61" height="1.305"></rect><rect x="31.349" y="21.513" display="inline" fill="#ffffff" width="2.61" height="1.305"></rect><rect x="28.739" y="13.682" display="inline" fill="#ffffff" width="3.915" height="1.305"></rect><rect x="44.4" y="26.733" display="inline" fill="#ffffff" width="2.61" height="1.305"></rect><rect x="27.434" y="18.903" display="inline" fill="#ffffff" width="5.22" height="1.305"></rect><rect x="33.959" y="18.903" display="inline" fill="#ffffff" width="5.22" height="1.305"></rect><rect x="41.79" y="18.903" display="inline" fill="#ffffff" width="5.22" height="1.305"></rect><rect x="21.083" y="16.04" display="inline" fill="#ffffff" width="4.907" height="1.305"></rect><rect x="19.603" y="11.072" display="inline" fill="#ffffff" width="13.051" height="1.305"></rect><rect x="36.569" y="11.072" display="inline" fill="#ffffff" width="5.22" height="1.305"></rect><rect x="28.739" y="31.954" display="inline" fill="#ffffff" width="7.831" height="1.305"></rect><rect x="26.129" y="29.344" display="inline" fill="#ffffff" width="7.831" height="1.305"></rect><rect x="19.603" y="21.513" display="inline" fill="#ffffff" width="7.831" height="1.305"></rect><rect x="18.298" y="26.733" display="inline" fill="#ffffff" width="7.831" height="1.305"></rect><rect x="16.993" y="24.123" display="inline" fill="#ffffff" width="7.831" height="1.305"></rect></g><g xmlns="http://www.w3.org/2000/svg"><g><path d="M61.735,3.26H2.266C1.017,3.26,0,4.251,0,5.47v36.497v2v4.16c0,1.264,1.017,2.291,2.266,2.291h20.831l-1.005,7.031h-4.654    v3.29h29.125v-3.29h-4.653l-1.006-7.031h20.832c1.249,0,2.265-1.027,2.265-2.291v-4.16v-2V5.47C64,4.251,62.984,3.26,61.735,3.26z     M24.112,57.45l1.005-7.031h13.766l1.006,7.031H24.112z M62,48.127c0,0.158-0.121,0.291-0.265,0.291H40.617H23.383H2.266    C2.122,48.418,2,48.286,2,48.127v-4.16h60V48.127z M62,41.967H2V5.47c0-0.1,0.109-0.21,0.266-0.21h59.47    C61.892,5.26,62,5.371,62,5.47V41.967z"></path><rect x="19.478" y="31.828" width="5.47" height="1.556"></rect><rect x="20.783" y="29.219" width="2.86" height="1.555"></rect><rect x="19.478" y="18.778" width="5.47" height="1.556"></rect><rect x="19.478" y="13.558" width="5.47" height="1.555"></rect><rect x="33.835" y="26.609" width="6.775" height="1.555"></rect><rect x="35.139" y="23.998" width="5.471" height="1.555"></rect><rect x="24.351" y="34.439" width="11.039" height="1.556"></rect><rect x="28.614" y="26.609" width="2.86" height="1.555"></rect><rect x="29.919" y="23.998" width="2.86" height="1.555"></rect><rect x="37.75" y="21.388" width="2.86" height="1.555"></rect><rect x="31.224" y="21.388" width="2.861" height="1.555"></rect><rect x="28.614" y="13.558" width="4.165" height="1.555"></rect><rect x="44.275" y="26.609" width="2.86" height="1.555"></rect><rect x="27.309" y="18.778" width="5.47" height="1.556"></rect><rect x="33.835" y="18.778" width="5.47" height="1.556"></rect><rect x="41.665" y="18.778" width="5.471" height="1.556"></rect><rect x="20.958" y="15.915" width="5.157" height="1.555"></rect><rect x="19.478" y="10.948" width="13.301" height="1.555"></rect><rect x="36.444" y="10.948" width="5.471" height="1.555"></rect><rect x="28.614" y="31.828" width="8.08" height="1.556"></rect><rect x="26.004" y="29.219" width="8.081" height="1.555"></rect><rect x="19.478" y="21.388" width="8.081" height="1.555"></rect><rect x="18.173" y="26.609" width="8.081" height="1.555"></rect><rect x="16.868" y="23.998" width="8.081" height="1.555"></rect></g></g></g><g id="SvgjsG1420" featureKey="nameFeature-0" transform="matrix(0.0256486944471688,0,0,0.0256486944471688,148.95593553237285,170.70794785377302)" fill="#20c997"><path d="M16.152 40.39063 c-8.3008 0 -14.434 -5.6445 -14.434 -14.512 s6.1328 -14.492 14.434 -14.492 c6.2891 0 11.328 3.2227 13.34 8.5742 l-5.4688 1.9922 c-1.25 -3.2813 -4.2383 -5.1758 -7.8711 -5.1758 c-4.8633 0 -8.5938 3.3984 -8.5938 9.1016 s3.7305 9.1211 8.5938 9.1211 c3.6328 0 6.6211 -1.9141 7.8711 -5.1953 l5.4688 1.9922 c-2.0117 5.3516 -7.0508 8.5938 -13.34 8.5938 z M55.9371875 11.777000000000001 l5.8594 0 l0 28.223 l-5.8594 0 l0 -11.602 l-11.934 0 l0 11.602 l-5.8594 0 l0 -28.223 l5.8594 0 l0 11.523 l11.934 0 l0 -11.523 z M91.835875 40 l-2.0508 -5.8203 l-11.855 0 l-2.0508 5.8203 l-5.9961 0 l10.391 -28.223 l7.168 0 l10.391 28.223 l-5.9961 0 z M79.648875 29.277 l8.418 0 l-4.1992 -11.973 z M120.820625 40 l-7.3438 -12.422 l-1.6992 0 l0 12.422 l-5.8594 0 l0 -28.223 l10.234 0 c6.3867 0 9.082 3.7695 9.082 8.4375 c0 3.7891 -2.1484 6.25 -5.9766 7.0703 l8.4961 12.715 l-6.9336 0 z M111.777325 16.641 l0 6.7383 l3.457 0 c3.125 0 4.3945 -1.3281 4.3945 -3.3594 c0 -2.0117 -1.2695 -3.3789 -4.3945 -3.3789 l-3.457 0 z M141.75779375 34.8242 l8.8477 0 l0 5.1758 l-14.707 0 l0 -28.223 l5.8594 0 l0 23.047 z M158.9257375 40 l0 -28.223 l5.8594 0 l0 28.223 l-5.8594 0 z M192.285625 16.934 l-10.469 0 l0 6.4063 l9.2773 0 l0 5.0977 l-9.2773 0 l0 6.3867 l10.469 0 l0 5.1758 l-16.367 0 l0 -28.223 l16.367 0 l0 5.1563 z M233.10590625 40 l-8.7695 -11.992 l-2.0703 0 l0 11.992 l-5.8594 0 l0 -28.223 l5.8594 0 l0 11.094 l1.9922 0 l8.8477 -11.094 l7.1484 0 l-10.938 13.496 l11.27 14.727 l-7.4805 0 z M267.51946875 40 l-2.0508 -5.8203 l-11.855 0 l-2.0508 5.8203 l-5.9961 0 l10.391 -28.223 l7.168 0 l10.391 28.223 l-5.9961 0 z M255.33246875 29.277 l8.418 0 l-4.1992 -11.973 z M302.77321875 11.777000000000001 l-9.2773 14.707 l0 13.516 l-5.8789 0 l0 -13.379 l-9.3359 -14.844 l6.4844 0 l5.7617 9.6094 l5.7813 -9.6094 l6.4648 0 z M316.44529375 34.8242 l8.8477 0 l0 5.1758 l-14.707 0 l0 -28.223 l5.8594 0 l0 23.047 z M346.1129375 40.39063 c-8.3008 0 -14.434 -5.6641 -14.434 -14.512 c0 -8.8672 6.1328 -14.492 14.434 -14.492 c8.2813 0 14.414 5.625 14.414 14.492 c0 8.8477 -6.1328 14.512 -14.414 14.512 z M346.1129375 35.0195 c4.8633 0 8.5938 -3.418 8.5938 -9.1406 c0 -5.7031 -3.7305 -9.1016 -8.5938 -9.1016 s-8.5938 3.3984 -8.5938 9.1016 c0 5.7227 3.7305 9.1406 8.5938 9.1406 z M384.66828125 40 l-7.3438 -12.422 l-1.6992 0 l0 12.422 l-5.8594 0 l0 -28.223 l10.234 0 c6.3867 0 9.082 3.7695 9.082 8.4375 c0 3.7891 -2.1484 6.25 -5.9766 7.0703 l8.4961 12.715 l-6.9336 0 z M375.62498125 16.641 l0 6.7383 l3.457 0 c3.125 0 4.3945 -1.3281 4.3945 -3.3594 c0 -2.0117 -1.2695 -3.3789 -4.3945 -3.3789 l-3.457 0 z"></path></g><g id="SvgjsG1421" featureKey="sloganFeature-0" transform="matrix(5.929549643478799,0,0,5.929549643478799,69.7307255007643,141.57965063572988)" fill="#ffffff"><path d="M10.76 16.58 l0 3.08 c-1.24 0.34 -2.48 0.48 -3.76 0.48 c-3.76 0 -6.28 -2.58 -6.28 -6.24 c0 -3.76 2.62 -6.24 6.26 -6.24 c1.26 0 2.58 0.1 3.78 0.48 l0 3.08 c-0.98 -0.48 -2.52 -0.66 -3.6 -0.66 c-2.44 0 -3.44 1 -3.44 3.32 c0 2.46 1.18 3.36 3.46 3.36 c1.02 0 2.68 -0.16 3.58 -0.66 z M16.8835 7.76 l3 0 l0 5.74 l3.94 -5.74 l3.72 0 l-4.28 6.12 l4.44 6.12 l-3.68 0 l-4.14 -5.76 l0 5.76 l-3 0 l0 -12.24 z"></path></g>
			</g>
		</svg>
	